<svg width="32" height="23" viewBox="0 0 32 23" fill="none" xmlns="http://www.w3.org/2000/svg">
<path d="M8 23C5.79394 23 3.90933 22.2453 2.34618 20.7359C0.78206 19.2266 0 17.3818 0 15.2016C0 13.3328 0.569697 11.6677 1.70909 10.2063C2.84848 8.74479 4.33939 7.81042 6.18182 7.40312C6.78788 5.19896 8 3.41406 9.81818 2.04844C11.6364 0.682813 13.697 0 16 0C18.8364 0 21.2422 0.976063 23.2175 2.92819C25.1937 4.88127 26.1818 7.25937 26.1818 10.0625C27.8545 10.2542 29.2427 10.9667 30.3462 12.2001C31.4487 13.4344 32 14.8781 32 16.5312C32 18.3281 31.3639 19.8557 30.0916 21.114C28.8184 22.3713 27.2727 23 25.4545 23H8Z" fill="white"/>
</svg>
