<svg width="32" height="29" viewBox="0 0 32 29" fill="none" xmlns="http://www.w3.org/2000/svg">
<path d="M16 5.8C15.5879 5.8 15.2427 5.6608 14.9644 5.3824C14.6851 5.10497 14.5455 4.76083 14.5455 4.35V1.45C14.5455 1.03917 14.6851 0.69455 14.9644 0.41615C15.2427 0.138717 15.5879 0 16 0C16.4121 0 16.7578 0.138717 17.0371 0.41615C17.3154 0.69455 17.4545 1.03917 17.4545 1.45V4.35C17.4545 4.76083 17.3154 5.10497 17.0371 5.3824C16.7578 5.6608 16.4121 5.8 16 5.8ZM23.2 8.7725C22.9091 8.4825 22.7636 8.14417 22.7636 7.7575C22.7636 7.37083 22.9091 7.0325 23.2 6.7425L25.2364 4.67625C25.5273 4.38625 25.8725 4.24125 26.272 4.24125C26.6725 4.24125 27.0182 4.38625 27.3091 4.67625C27.6 4.96625 27.7455 5.30458 27.7455 5.69125C27.7455 6.07792 27.6 6.41625 27.3091 6.70625L25.2364 8.7725C24.9455 9.0625 24.6061 9.2075 24.2182 9.2075C23.8303 9.2075 23.4909 9.0625 23.2 8.7725ZM27.6364 17.4C27.2242 17.4 26.879 17.2608 26.6007 16.9824C26.3215 16.705 26.1818 16.3608 26.1818 15.95C26.1818 15.5392 26.3215 15.1946 26.6007 14.9162C26.879 14.6387 27.2242 14.5 27.6364 14.5H30.5455C30.9576 14.5 31.3028 14.6387 31.5811 14.9162C31.8604 15.1946 32 15.5392 32 15.95C32 16.3608 31.8604 16.705 31.5811 16.9824C31.3028 17.2608 30.9576 17.4 30.5455 17.4H27.6364ZM25.2364 27.2238L23.2 25.1575C22.9091 24.8675 22.7636 24.5292 22.7636 24.1425C22.7636 23.7558 22.9091 23.4175 23.2 23.1275C23.4909 22.8375 23.8303 22.6925 24.2182 22.6925C24.6061 22.6925 24.9455 22.8375 25.2364 23.1275L27.3091 25.1575C27.6 25.4475 27.7455 25.7916 27.7455 26.1899C27.7455 26.5891 27.6 26.9338 27.3091 27.2238C27.0182 27.5138 26.6725 27.6588 26.272 27.6588C25.8725 27.6588 25.5273 27.5138 25.2364 27.2238ZM6.76364 8.7725L4.69091 6.70625C4.4 6.41625 4.25455 6.07792 4.25455 5.69125C4.25455 5.30458 4.4 4.96625 4.69091 4.67625C4.98182 4.38625 5.32752 4.24125 5.728 4.24125C6.12752 4.24125 6.47273 4.38625 6.76364 4.67625L8.8 6.7425C9.09091 7.0325 9.23636 7.37083 9.23636 7.7575C9.23636 8.14417 9.09091 8.4825 8.8 8.7725C8.50909 9.0625 8.1697 9.2075 7.78182 9.2075C7.39394 9.2075 7.05455 9.0625 6.76364 8.7725ZM7.27273 29C5.26061 29 3.5457 28.2934 2.128 26.8801C0.709333 25.4659 0 23.7558 0 21.75C0 19.7442 0.709333 18.0341 2.128 16.6199C3.5457 15.2066 5.26061 14.5 7.27273 14.5H7.41818C7.75758 12.4217 8.72727 10.6938 10.3273 9.31625C11.9273 7.93875 13.8182 7.25 16 7.25C18.4242 7.25 20.4848 8.09583 22.1818 9.7875C23.8788 11.4792 24.7273 13.5333 24.7273 15.95C24.7273 17.835 24.1876 19.5204 23.1084 21.0062C22.0301 22.4929 20.6303 23.5383 18.9091 24.1425C18.8606 25.4958 18.3457 26.6438 17.3644 27.5863C16.3821 28.5288 15.2 29 13.8182 29H7.27273ZM7.27273 26.1H13.8182C14.4242 26.1 14.9392 25.8883 15.3629 25.4649C15.7876 25.0425 16 24.5292 16 23.925C16 23.3208 15.7939 22.8075 15.3818 22.3851C14.9697 21.9617 14.4606 21.75 13.8545 21.75H12L11.2727 20.01C10.9333 19.2125 10.4 18.5784 9.67273 18.1076C8.94545 17.6359 8.14545 17.4 7.27273 17.4C6.06061 17.4 5.0303 17.8229 4.18182 18.6688C3.33333 19.5146 2.90909 20.5417 2.90909 21.75C2.90909 22.9583 3.33333 23.9854 4.18182 24.8313C5.0303 25.6771 6.06061 26.1 7.27273 26.1ZM18.1818 21.315C19.2727 20.88 20.1513 20.185 20.8175 19.2299C21.4846 18.2758 21.8182 17.1825 21.8182 15.95C21.8182 14.355 21.2485 12.9896 20.1091 11.8538C18.9697 10.7179 17.6 10.15 16 10.15C14.5212 10.15 13.2427 10.6275 12.1644 11.5826C11.0851 12.5367 10.4485 13.7267 10.2545 15.1525C11.0788 15.515 11.8061 16.0104 12.4364 16.6388C13.0667 17.2671 13.5636 18.0042 13.9273 18.85C14.8485 18.85 15.679 19.0796 16.4189 19.5388C17.1578 19.9979 17.7455 20.59 18.1818 21.315Z" fill="white"/>
</svg>
