<svg width="32" height="20" viewBox="0 0 32 20" fill="none" xmlns="http://www.w3.org/2000/svg">
<path d="M5.76269 9.85752C5.39966 10.0475 5.03059 10.0772 4.65546 9.94657C4.28034 9.81596 3.99597 9.57256 3.80235 9.21636L0.172101 2.09235C-0.0215126 1.73615 -0.0517647 1.37401 0.0813445 1.00594C0.214454 0.637863 0.462521 0.358839 0.825546 0.168865C1.18857 -0.0211082 1.55765 -0.0507916 1.93277 0.0798153C2.3079 0.210422 2.59227 0.453826 2.78588 0.810026L6.41613 7.93404C6.60975 8.29024 6.64 8.65237 6.50689 9.02045C6.37378 9.38852 6.12571 9.66755 5.76269 9.85752ZM10.845 19.8311C10.482 20.0211 10.1129 20.0508 9.73782 19.9202C9.36269 19.7896 9.07832 19.5462 8.88471 19.19L5.9805 13.4908C5.78689 13.1346 5.75664 12.7724 5.88975 12.4044C6.02286 12.0363 6.27092 11.7573 6.63395 11.5673C6.99697 11.3773 7.36605 11.3476 7.74118 11.4782C8.1163 11.6088 8.40067 11.8522 8.59429 12.2084L11.4985 17.9077C11.6921 18.2639 11.7224 18.626 11.5892 18.9941C11.4561 19.3621 11.2081 19.6412 10.845 19.8311ZM13.8218 12.7071C13.4588 12.8971 13.0897 12.9268 12.7146 12.7962C12.3395 12.6656 12.0551 12.4222 11.8615 12.066L6.77916 2.09235C6.58555 1.73615 6.55529 1.37401 6.6884 1.00594C6.82151 0.637863 7.06958 0.358839 7.43261 0.168865C7.79563 -0.0211082 8.16471 -0.0507916 8.53983 0.0798153C8.91496 0.210422 9.19933 0.453826 9.39294 0.810026L14.4753 10.7836C14.6689 11.1398 14.6992 11.502 14.5661 11.8701C14.4329 12.2381 14.1849 12.5172 13.8218 12.7071ZM16.9439 5.58311C16.5808 5.77309 16.2118 5.80277 15.8366 5.67216C15.4615 5.54156 15.1771 5.29815 14.9835 4.94195L13.5677 2.09235C13.3741 1.73615 13.3439 1.37401 13.477 1.00594C13.6101 0.637863 13.8582 0.358839 14.2212 0.168865C14.5842 -0.0211082 14.9472 -0.0507916 15.3103 0.0798153C15.6733 0.210422 15.9516 0.453826 16.1452 0.810026L17.5973 3.65963C17.7909 4.01583 17.8212 4.37797 17.6881 4.74604C17.555 5.11412 17.3069 5.39314 16.9439 5.58311ZM17.8151 19.7955C17.4521 19.9855 17.083 20.0211 16.7079 19.9024C16.3328 19.7836 16.0484 19.5462 15.8548 19.19L14.4027 16.3404C14.2091 15.9842 14.1788 15.622 14.3119 15.254C14.445 14.8859 14.6931 14.6069 15.0561 14.4169C15.4192 14.2269 15.7882 14.1972 16.1634 14.3278C16.5385 14.4584 16.8229 14.7018 17.0165 15.058L18.4686 17.9077C18.6622 18.2639 18.6924 18.6201 18.5593 18.9763C18.4262 19.3325 18.1782 19.6055 17.8151 19.7955ZM24.5674 19.7955C24.2044 19.9855 23.8353 20.0211 23.4602 19.9024C23.085 19.7836 22.8007 19.5462 22.6071 19.19L17.5247 9.21636C17.3311 8.86016 17.3008 8.49802 17.434 8.12995C17.5671 7.76187 17.8151 7.48285 18.1782 7.29288C18.5412 7.1029 18.9103 7.07322 19.2854 7.20383C19.6605 7.33443 19.9449 7.57784 20.1385 7.93404L25.2208 17.9077C25.4145 18.2639 25.4447 18.6201 25.3116 18.9763C25.1785 19.3325 24.9304 19.6055 24.5674 19.7955ZM26.8182 11.2823C26.4551 11.4723 26.0861 11.502 25.7109 11.3714C25.3358 11.2408 25.0514 10.9974 24.8578 10.6412L20.5015 2.09235C20.3079 1.73615 20.2776 1.37401 20.4108 1.00594C20.5439 0.637863 20.7919 0.358839 21.155 0.168865C21.518 -0.0211082 21.8871 -0.0507916 22.2622 0.0798153C22.6373 0.210422 22.9217 0.453826 23.1153 0.810026L27.4716 9.35884C27.6652 9.71504 27.6955 10.0772 27.5624 10.4453C27.4292 10.8133 27.1812 11.0923 26.8182 11.2823ZM31.1745 19.8311C30.8114 20.0211 30.4424 20.0508 30.0672 19.9202C29.6921 19.7896 29.4077 19.5462 29.2141 19.19L27.036 14.9156C26.8424 14.5594 26.8121 14.1972 26.9452 13.8292C27.0783 13.4611 27.3264 13.1821 27.6894 12.9921C28.0524 12.8021 28.4215 12.7724 28.7966 12.903C29.1718 13.0336 29.4561 13.277 29.6497 13.6332L31.8279 17.9077C32.0215 18.2639 32.0518 18.626 31.9187 18.9941C31.7855 19.3621 31.5375 19.6412 31.1745 19.8311Z" fill="white"/>
</svg>
