<svg width="32" height="36" viewBox="0 0 32 36" fill="none" xmlns="http://www.w3.org/2000/svg">
<path d="M25.472 8.032C24.72 3.488 20.752 0 16 0C12.512 0 9.328 1.888 7.648 4.896C3.344 5.456 0 9.184 0 13.6C0 18.448 3.952 22.4 8.8 22.4H24.8C28.768 22.4 32 19.168 32 15.2C32 11.456 29.136 8.368 25.472 8.032Z" fill="white"/>
<path d="M20.48 24L15.84 29.312L19.04 30.912L15.28 35.2H19.52L24.16 29.888L20.96 28.288L24.72 24H20.48Z" fill="white"/>
<path d="M10.88 24L6.23999 29.312L9.43999 30.912L5.67999 35.2H9.91999L14.56 29.888L11.36 28.288L15.12 24H10.88Z" fill="white"/>
</svg>
