<svg width="32" height="32" viewBox="0 0 32 32" fill="none" xmlns="http://www.w3.org/2000/svg">
<path d="M8.37818 6.26849L5.76 3.65297L3.70909 5.71324L6.31273 8.32877L8.37818 6.26849ZM4.36364 14.5388H0V17.4612H4.36364V14.5388ZM17.4545 0H14.5455V4.3105H17.4545V0ZM28.2909 5.71324L26.24 3.65297L23.6364 6.26849L25.6873 8.32877L28.2909 5.71324ZM23.6218 25.7315L26.2255 28.3616L28.2764 26.3014L25.6582 23.6858L23.6218 25.7315ZM27.6364 14.5388V17.4612H32V14.5388H27.6364ZM16 7.23288C11.1855 7.23288 7.27273 11.1635 7.27273 16C7.27273 20.8365 11.1855 24.7671 16 24.7671C20.8145 24.7671 24.7273 20.8365 24.7273 16C24.7273 11.1635 20.8145 7.23288 16 7.23288ZM14.5455 32H17.4545V27.6895H14.5455V32ZM3.70909 26.2868L5.76 28.347L8.36364 25.7169L6.31273 23.6566L3.70909 26.2868Z" fill="white"/>
</svg>
