<svg width="1024" height="512" viewBox="0 0 1024 512" fill="none" xmlns="http://www.w3.org/2000/svg">
<path fill-rule="evenodd" clip-rule="evenodd" d="M979.184 0.026062L982.282 0L985.379 0.026062L988.476 0.104065L991.573 0.233948L994.671 0.415222L997.768 0.6474L1000.87 0.929932L1003.96 1.26196L1007.06 1.64264L1010.16 2.07086L1013.25 2.54553L1016.35 3.06525L1019.45 3.62866L1022.55 4.23425L1024 4.53748V512H0V30.8444L0.442448 30.9571L3.53976 31.7135L6.63707 32.4351L9.73429 33.1198L12.8316 33.7657L15.9289 34.3713L19.0262 34.9348L22.1234 35.4545L25.2207 35.9291L28.3181 36.3574L31.4153 36.738L34.5126 37.0701L37.6099 37.3526L40.7071 37.5848L43.8044 37.7661L46.9017 37.8959L49.999 37.9739L53.0963 38L56.1936 37.9739L59.2909 37.8959L62.3882 37.7661L65.4854 37.5848L68.5827 37.3526L71.68 37.0701L74.7773 36.738L77.8746 36.3574L80.9719 35.9291L84.0691 35.4545L87.1664 34.9348L90.2637 34.3713L93.361 33.7657L96.4582 33.1198L99.5556 32.4351L102.653 31.7135L105.75 30.9571L108.847 30.1679L111.945 29.3481L115.042 28.5L118.139 27.6258L121.237 26.728L124.334 25.809L127.431 24.8713L130.528 23.9175L133.626 22.9503L136.723 21.9722L139.82 20.986L142.918 19.9944L146.015 19L149.112 18.0056L152.209 17.014L155.307 16.0278L158.404 15.0497L161.501 14.0825L164.599 13.1287L167.696 12.191L170.793 11.272L173.89 10.3742L176.988 9.5L180.085 8.65186L183.182 7.83209L186.28 7.04291L189.377 6.2865L192.474 5.56494L195.571 4.88025L198.669 4.23425L201.766 3.62866L204.863 3.06525L207.961 2.54553L211.058 2.07086L214.155 1.64264L217.252 1.26196L220.35 0.929932L223.447 0.6474L226.544 0.415222L229.641 0.233948L232.739 0.104065L235.836 0.026062L238.933 0L242.031 0.026062L245.128 0.104065L248.225 0.233948L251.322 0.415222L254.42 0.6474L257.517 0.929932L260.614 1.26196L263.712 1.64264L266.809 2.07086L269.906 2.54553L273.003 3.06525L276.101 3.62866L279.198 4.23425L282.295 4.88025L285.393 5.56494L288.49 6.2865L291.587 7.04291L294.684 7.83209L297.782 8.65186L300.879 9.5L303.976 10.3742L307.074 11.272L310.171 12.191L313.268 13.1287L316.365 14.0825L319.463 15.0497L322.56 16.0278L325.657 17.014L328.755 18.0056L331.852 19L334.949 19.9944L338.046 20.986L341.144 21.9722L344.241 22.9503L347.338 23.9175L350.436 24.8713L353.533 25.809L356.63 26.728L359.727 27.6258L362.825 28.5L365.922 29.3481L369.019 30.1679L372.117 30.9571L375.214 31.7135L378.311 32.4351L381.408 33.1198L384.506 33.7657L387.603 34.3713L390.7 34.9348L393.798 35.4545L396.895 35.9291L399.992 36.3574L403.089 36.738L406.187 37.0701L409.284 37.3526L412.381 37.5848L415.478 37.7661L418.576 37.8959L421.673 37.9739L424.77 38L427.868 37.9739L430.965 37.8959L434.062 37.7661L437.16 37.5848L440.257 37.3526L443.354 37.0701L446.451 36.738L449.549 36.3574L452.646 35.9291L455.743 35.4545L458.84 34.9348L461.938 34.3713L465.035 33.7657L468.132 33.1198L471.23 32.4351L474.327 31.7135L477.424 30.9571L480.522 30.1679L483.619 29.3481L486.716 28.5L489.813 27.6258L492.911 26.728L496.008 25.809L499.105 24.8713L502.202 23.9175L505.3 22.9503L508.397 21.9722L511.494 20.986L514.592 19.9944L517.689 19L520.786 18.0056L523.884 17.014L526.981 16.0278L530.078 15.0497L533.175 14.0825L536.273 13.1287L539.37 12.191L542.467 11.272L545.564 10.3742L548.662 9.5L551.759 8.65186L554.856 7.83209L557.954 7.04291L561.051 6.2865L564.148 5.56494L567.245 4.88025L570.343 4.23425L573.44 3.62866L576.537 3.06525L579.635 2.54553L582.732 2.07086L585.829 1.64264L588.926 1.26196L592.024 0.929932L595.121 0.6474L598.218 0.415222L601.316 0.233948L604.413 0.104065L607.51 0.026062L610.607 0L613.705 0.026062L616.802 0.104065L619.899 0.233948L622.997 0.415222L626.094 0.6474L629.191 0.929932L632.288 1.26196L635.386 1.64264L638.483 2.07086L641.58 2.54553L644.677 3.06525L647.775 3.62866L650.872 4.23425L653.969 4.88025L657.067 5.56494L660.164 6.2865L663.261 7.04291L666.359 7.83209L669.456 8.65186L672.553 9.5L675.65 10.3742L678.748 11.272L681.845 12.191L684.942 13.1287L688.04 14.0825L691.137 15.0497L694.234 16.0278L697.331 17.014L700.429 18.0056L703.526 19L706.623 19.9944L709.721 20.986L712.818 21.9722L715.915 22.9503L719.012 23.9175L722.11 24.8713L725.207 25.809L728.304 26.728L731.401 27.6258L734.499 28.5L737.596 29.3481L740.693 30.1679L743.791 30.9571L746.888 31.7135L749.985 32.4351L753.082 33.1198L756.18 33.7657L759.277 34.3713L762.374 34.9348L765.472 35.4545L768.569 35.9291L771.666 36.3574L774.764 36.738L777.861 37.0701L780.958 37.3526L784.055 37.5848L787.153 37.7661L790.25 37.8959L793.347 37.9739L796.444 38L799.542 37.9739L802.639 37.8959L805.736 37.7661L808.834 37.5848L811.931 37.3526L815.028 37.0701L818.125 36.738L821.223 36.3574L824.32 35.9291L827.417 35.4545L830.515 34.9348L833.612 34.3713L836.709 33.7657L839.806 33.1198L842.904 32.4351L846.001 31.7135L849.098 30.9571L852.196 30.1679L855.293 29.3481L858.39 28.5L861.488 27.6258L864.585 26.728L867.682 25.809L870.779 24.8713L873.877 23.9175L876.974 22.9503L880.071 21.9722L883.168 20.986L886.266 19.9944L889.363 19L892.46 18.0056L895.558 17.014L898.655 16.0278L901.752 15.0497L904.849 14.0825L907.947 13.1287L911.044 12.191L914.141 11.272L917.239 10.3742L920.336 9.5L923.433 8.65186L926.53 7.83209L929.628 7.04291L932.725 6.2865L935.822 5.56494L938.919 4.88025L942.017 4.23425L945.114 3.62866L948.211 3.06525L951.309 2.54553L954.406 2.07086L957.503 1.64264L960.601 1.26196L963.698 0.929932L966.795 0.6474L969.892 0.415222L972.99 0.233948L976.087 0.104065L979.184 0.026062Z" fill="url(#paint0_linear_35_26)"/>
<defs>
<linearGradient id="paint0_linear_35_26" x1="512" y1="0" x2="512" y2="512" gradientUnits="userSpaceOnUse">
<stop stop-color="#1E6B9A"/>
<stop offset="0.600962" stop-color="#90D5FF"/>
</linearGradient>
</defs>
</svg>
