<svg width="1024" height="512" viewBox="0 0 1024 512" fill="none" xmlns="http://www.w3.org/2000/svg">
<path fill-rule="evenodd" clip-rule="evenodd" d="M1024 512V32L1021.16 30.8832L1018.31 29.7678L1015.47 28.6551L1012.62 27.5464L1009.78 26.4432L1006.93 25.3468L1004.09 24.2585L1001.24 23.1796L998.4 22.1115L995.556 21.0554L992.711 20.0126L989.867 18.9844L987.022 17.9721L984.178 16.9769L981.333 16L978.489 15.0426L975.645 14.1058L972.8 13.1909L969.956 12.2988L967.111 11.4308L964.267 10.5878L961.422 9.77094L958.578 8.98114L955.733 8.21936L952.889 7.48657L950.044 6.78363L947.2 6.11145L944.355 5.47083L941.511 4.86249L938.667 4.28717L935.822 3.74567L932.978 3.23859L930.133 2.76654L927.289 2.33014L924.444 1.92981L921.6 1.56616L918.755 1.23962L915.911 0.950562L913.067 0.69928L910.222 0.486145L907.378 0.311401L904.533 0.175293L901.689 0.0779419L898.845 0.0194702L896 0L893.156 0.0194702L890.311 0.0779419L887.467 0.175293L884.622 0.311401L881.778 0.486145L878.934 0.69928L876.089 0.950562L873.245 1.23962L870.4 1.56616L867.556 1.92981L864.711 2.33014L861.867 2.76654L859.022 3.23859L856.178 3.74567L853.333 4.28717L850.489 4.86249L847.645 5.47083L844.8 6.11145L841.956 6.78363L839.111 7.48657L836.267 8.21936L833.422 8.98114L830.578 9.77094L827.733 10.5878L824.889 11.4308L822.044 12.2988L819.2 13.1909L816.355 14.1058L813.511 15.0426L810.667 16L807.822 16.9769L804.978 17.9721L802.133 18.9844L799.289 20.0126L796.444 21.0554L793.6 22.1115L790.755 23.1796L787.911 24.2585L785.067 25.3468L782.222 26.4432L779.378 27.5464L776.533 28.6551L773.689 29.7678L770.845 30.8832L768 32L765.156 33.1168L762.311 34.2322L759.467 35.3449L756.622 36.4536L753.778 37.5568L750.934 38.6532L748.089 39.7415L745.245 40.8204L742.4 41.8885L739.556 42.9446L736.711 43.9874L733.867 45.0156L731.022 46.0279L728.178 47.0231L725.333 48L722.489 48.9574L719.645 49.8942L716.8 50.8091L713.956 51.7012L711.111 52.5692L708.267 53.4122L705.422 54.2291L702.578 55.0189L699.733 55.7806L696.889 56.5134L694.044 57.2164L691.2 57.8885L688.355 58.5292L685.511 59.1375L682.667 59.7128L679.822 60.2543L676.978 60.7614L674.133 61.2335L671.289 61.6699L668.444 62.0702L665.6 62.4338L662.755 62.7604L659.911 63.0494L657.067 63.3007L654.222 63.5139L651.378 63.6886L648.533 63.8247L645.689 63.9221L642.845 63.9805L640 64L637.156 63.9805L634.311 63.9221L631.467 63.8247L628.622 63.6886L625.778 63.5139L622.934 63.3007L620.089 63.0494L617.245 62.7604L614.4 62.4338L611.556 62.0702L608.711 61.6699L605.867 61.2335L603.022 60.7614L600.178 60.2543L597.333 59.7128L594.489 59.1375L591.645 58.5292L588.8 57.8885L585.956 57.2164L583.111 56.5134L580.267 55.7806L577.422 55.0189L574.578 54.2291L571.733 53.4122L568.889 52.5692L566.044 51.7012L563.2 50.8091L560.355 49.8942L557.511 48.9574L554.667 48L551.822 47.0231L548.978 46.0279L546.133 45.0156L543.289 43.9874L540.444 42.9446L537.6 41.8885L534.755 40.8204L531.911 39.7415L529.066 38.6532L526.222 37.5568L523.378 36.4536L520.533 35.3449L517.689 34.2322L514.845 33.1168L512 32L509.156 30.8832L506.311 29.7678L503.467 28.6551L500.622 27.5464L497.778 26.4432L494.934 25.3468L492.089 24.2585L489.245 23.1796L486.4 22.1115L483.556 21.0554L480.711 20.0126L477.867 18.9844L475.022 17.9721L472.178 16.9769L469.333 16L466.489 15.0426L463.645 14.1058L460.8 13.1909L457.956 12.2988L455.111 11.4308L452.267 10.5878L449.422 9.77094L446.578 8.98114L443.733 8.21936L440.889 7.48657L438.044 6.78363L435.2 6.11145L432.355 5.47083L429.511 4.86249L426.667 4.28717L423.822 3.74567L420.978 3.23859L418.133 2.76654L415.289 2.33014L412.444 1.92981L409.6 1.56616L406.755 1.23962L403.911 0.950562L401.067 0.69928L398.222 0.486145L395.378 0.311401L392.533 0.175293L389.689 0.0779419L386.844 0.0194702L384 0L381.156 0.0194702L378.311 0.0779419L375.467 0.175293L372.622 0.311401L369.778 0.486145L366.934 0.69928L364.089 0.950562L361.245 1.23962L358.4 1.56616L355.556 1.92981L352.711 2.33014L349.867 2.76654L347.022 3.23859L344.178 3.74567L341.333 4.28717L338.489 4.86249L335.645 5.47083L332.8 6.11145L329.956 6.78363L327.111 7.48657L324.267 8.21936L321.422 8.98114L318.578 9.77094L315.733 10.5878L312.889 11.4308L310.044 12.2988L307.2 13.1909L304.355 14.1058L301.511 15.0426L298.667 16L295.822 16.9769L292.978 17.9721L290.133 18.9844L287.289 20.0126L284.444 21.0554L281.6 22.1115L278.755 23.1796L275.911 24.2585L273.067 25.3468L270.222 26.4432L267.378 27.5464L264.533 28.6551L261.689 29.7678L258.844 30.8832L256 32L253.156 33.1168L250.311 34.2322L247.467 35.3449L244.622 36.4536L241.778 37.5568L238.933 38.6532L236.089 39.7415L233.245 40.8204L230.4 41.8885L227.556 42.9446L224.711 43.9874L221.867 45.0156L219.022 46.0279L216.178 47.0231L213.333 48L210.489 48.9574L207.645 49.8942L204.8 50.8091L201.956 51.7012L199.111 52.5692L196.267 53.4122L193.422 54.2291L190.578 55.0189L187.733 55.7806L184.889 56.5134L182.044 57.2164L179.2 57.8885L176.355 58.5292L173.511 59.1375L170.667 59.7128L167.822 60.2543L164.978 60.7614L162.133 61.2335L159.289 61.6699L156.444 62.0702L153.6 62.4338L150.755 62.7604L147.911 63.0494L145.067 63.3007L142.222 63.5139L139.378 63.6886L136.533 63.8247L133.689 63.9221L130.844 63.9805L128 64L125.156 63.9805L122.311 63.9221L119.467 63.8247L116.622 63.6886L113.778 63.5139L110.933 63.3007L108.089 63.0494L105.245 62.7604L102.4 62.4338L99.5557 62.0702L96.7109 61.6699L93.8667 61.2335L91.0225 60.7614L88.1777 60.2543L85.3335 59.7128L82.4888 59.1375L79.6445 58.5292L76.7998 57.8885L73.9556 57.2164L71.1113 56.5134L68.2666 55.7806L65.4224 55.0189L62.5776 54.2291L59.7334 53.4122L56.8887 52.5692L54.0444 51.7012L51.2002 50.8091L48.3555 49.8942L45.5112 48.9574L42.6665 48L39.8223 47.0231L36.9775 46.0279L34.1333 45.0156L31.2891 43.9874L28.4443 42.9446L25.6001 41.8885L22.7554 40.8204L19.9111 39.7415L17.0669 38.6532L14.2222 37.5568L11.3779 36.4536L8.5332 35.3449L5.68896 34.2322L2.84424 33.1168L0 32V512H1024Z" fill="url(#paint0_linear_39_125)"/>
<defs>
<linearGradient id="paint0_linear_39_125" x1="512" y1="0" x2="512" y2="512" gradientUnits="userSpaceOnUse">
<stop stop-color="#90D5FF"/>
<stop offset="1" stop-color="#006668"/>
</linearGradient>
</defs>
</svg>
